<svg version="1.1" id="Layer_1" xmlns="http://www.w3.org/2000/svg" xmlns:xlink="http://www.w3.org/1999/xlink" x="0px" y="0px"
	 width="100%" viewBox="0 0 2000 1500" enable-background="new 0 0 2000 1500" xml:space="preserve">
<path fill="#FFFFFF" opacity="1.000000" stroke="none" 
	d="
M1183.000000,1501.000000 
	C788.666809,1501.000000 394.833557,1501.000000 1.000264,1501.000000 
	C1.000176,1001.000244 1.000176,501.000519 1.000088,1.000600 
	C667.666199,1.000400 1334.332397,1.000400 2000.999023,1.000200 
	C2000.999268,500.999390 2000.999268,1000.998779 2000.999634,1500.999023 
	C1728.500000,1501.000000 1456.000000,1501.000000 1183.000000,1501.000000 
M1394.500000,911.036987 
	C1428.656982,910.635254 1462.824585,910.628418 1496.967773,909.713745 
	C1527.274536,908.901794 1557.627075,907.965698 1587.827148,905.479675 
	C1623.993652,902.502502 1659.996704,897.582336 1696.123535,894.046875 
	C1705.215332,893.157166 1712.362793,889.684509 1718.405396,883.336182 
	C1721.033813,880.574829 1723.529053,877.609924 1725.629761,874.436279 
	C1734.257446,861.402100 1737.382812,846.729187 1738.003052,831.362793 
	C1738.527100,818.382812 1738.242798,805.306580 1739.766235,792.444763 
	C1742.329712,770.802612 1746.259033,749.366394 1746.679688,727.443420 
	C1747.131836,703.867188 1750.942627,680.346802 1745.204468,656.818298 
	C1740.196167,636.282532 1731.133301,619.179260 1710.773926,610.198975 
	C1705.155273,607.720703 1699.593872,605.084351 1693.865723,602.887146 
	C1659.831787,589.832397 1624.245483,586.881470 1588.281738,587.811707 
	C1562.147949,588.487671 1536.064453,591.024963 1509.930786,591.800171 
	C1470.458252,592.971130 1430.953003,593.025513 1391.477417,594.120117 
	C1352.834595,595.191711 1314.214600,597.054443 1275.579224,598.420044 
	C1224.958130,600.209351 1174.340210,602.896301 1123.705688,603.306396 
	C1052.055542,603.886658 980.391113,602.762451 908.733032,602.325806 
	C788.907288,601.595703 669.090454,601.603088 549.349426,607.094666 
	C523.219177,608.293152 497.068726,609.415405 470.998596,611.472717 
	C436.150452,614.222717 401.361816,617.750305 366.566284,621.135437 
	C341.216064,623.601624 315.814575,625.793213 290.602722,629.304565 
	C280.608185,630.696594 270.622314,634.391724 261.439148,638.741272 
	C252.161942,643.135376 250.678085,650.905090 256.152344,659.646729 
	C260.635040,666.805054 265.700531,673.620056 270.815369,680.353516 
	C274.436768,685.120850 279.006378,689.202271 282.359436,694.129639 
	C285.954865,699.413391 289.283722,705.089355 291.443787,711.059204 
	C292.725281,714.600952 293.711426,714.998718 296.900330,714.217102 
	C298.862518,713.736084 302.052307,713.519165 303.043060,714.640137 
	C307.345917,719.508606 312.756805,721.267212 318.849426,722.229004 
	C324.002838,723.042542 329.064636,724.436584 335.063446,725.773499 
	C319.556488,743.717957 330.775024,757.772583 340.318054,772.563110 
	C333.869904,773.443726 328.112488,773.982788 322.458252,775.062256 
	C314.648621,776.553162 306.709595,777.851440 299.239532,780.430115 
	C295.537903,781.708069 291.342072,785.071045 289.893127,788.543457 
	C287.656372,793.904114 284.574127,794.980713 279.531494,794.660889 
	C275.586395,794.410645 271.563202,794.706909 267.639740,795.239441 
	C266.537994,795.389038 264.648651,797.514038 264.853516,798.251587 
	C266.201752,803.105347 263.385559,806.175476 260.736572,809.406311 
	C255.233627,816.117798 255.249573,817.292175 261.000031,823.753296 
	C256.967499,828.346924 257.887573,833.189758 260.464447,838.086121 
	C263.318573,843.509399 266.628662,848.703186 266.126038,855.352722 
	C266.032013,856.596191 268.228363,858.657349 269.785339,859.257141 
	C274.039917,860.896301 273.866760,862.800354 271.115906,865.771790 
	C269.061005,867.991638 267.363342,870.542175 265.200592,873.341492 
	C267.191040,874.207153 268.207672,874.711426 269.266541,875.100769 
	C311.952637,890.799805 356.414886,896.554321 401.520233,897.840149 
	C434.828918,898.789612 468.170319,898.650818 501.498016,898.856140 
	C537.839966,899.080017 574.118103,900.065613 610.115234,905.784119 
	C612.696045,906.194092 615.583008,905.189331 618.237915,904.498047 
	C622.059509,903.503113 625.798828,902.192139 630.209534,900.817810 
	C629.881836,904.231750 629.699524,906.131348 629.423096,909.011597 
	C637.137573,906.212891 642.961548,910.025757 649.173706,912.637207 
	C651.152344,913.469116 653.829224,913.289429 656.003723,912.784607 
	C657.525452,912.431396 659.748657,910.865356 659.902771,909.623169 
	C660.435547,905.329895 662.210083,903.957947 666.510559,904.597107 
	C667.741150,904.780029 669.319702,902.622375 670.738708,901.537964 
	C669.601929,900.645813 668.511414,899.684082 667.311462,898.887024 
	C666.568420,898.393555 665.659180,898.150024 664.649658,897.719666 
	C670.826965,893.162964 673.782410,893.713318 677.339844,899.873840 
	C679.000732,902.750061 680.383789,905.804138 682.228394,908.552307 
	C684.195923,911.483643 686.767700,913.724304 690.842651,913.093140 
	C689.494751,907.155090 689.503357,907.178650 695.632019,904.948486 
	C696.549988,904.614441 697.356201,903.959839 698.194519,903.422974 
	C705.148621,898.968994 707.211304,899.440918 711.489258,906.594971 
	C712.250183,907.867615 712.496155,909.573181 713.499084,910.540588 
	C714.483704,911.490356 716.508118,912.602783 717.428528,912.192139 
	C730.676392,906.281433 744.149658,908.240479 757.700317,910.553955 
	C768.542419,912.404907 779.563110,914.756348 790.393921,911.738525 
	C799.072083,909.320374 807.492676,909.520386 816.060730,911.107422 
	C825.939148,912.937012 835.693970,914.531311 845.513184,910.466675 
	C847.345764,909.708008 850.005920,910.751526 852.235901,911.202087 
	C854.733276,911.706665 857.179443,913.069397 859.641541,913.053833 
	C906.132385,912.758972 952.621704,912.141174 999.112732,911.984497 
	C1018.765503,911.918274 1038.427979,913.309204 1058.074463,913.075989 
	C1107.390991,912.490601 1156.698120,910.840332 1206.014282,910.572632 
	C1268.506836,910.233337 1331.004517,910.838928 1394.500000,911.036987 
z"/>
<path fill="#010101" opacity="1.000000" stroke="none" 
	d="
M1394.000000,911.036987 
	C1331.004517,910.838928 1268.506836,910.233337 1206.014282,910.572632 
	C1156.698120,910.840332 1107.390991,912.490601 1058.074463,913.075989 
	C1038.427979,913.309204 1018.765503,911.918274 999.112732,911.984497 
	C952.621704,912.141174 906.132385,912.758972 859.641541,913.053833 
	C857.179443,913.069397 854.733276,911.706665 852.235901,911.202087 
	C850.005920,910.751526 847.345764,909.708008 845.513184,910.466675 
	C835.693970,914.531311 825.939148,912.937012 816.060730,911.107422 
	C807.492676,909.520386 799.072083,909.320374 790.393921,911.738525 
	C779.563110,914.756348 768.542419,912.404907 757.700317,910.553955 
	C744.149658,908.240479 730.676392,906.281433 717.428528,912.192139 
	C716.508118,912.602783 714.483704,911.490356 713.499084,910.540588 
	C712.496155,909.573181 712.250183,907.867615 711.489258,906.594971 
	C707.211304,899.440918 705.148621,898.968994 698.194519,903.422974 
	C697.356201,903.959839 696.549988,904.614441 695.632019,904.948486 
	C689.503357,907.178650 689.494751,907.155090 690.842651,913.093140 
	C686.767700,913.724304 684.195923,911.483643 682.228394,908.552307 
	C680.383789,905.804138 679.000732,902.750061 677.339844,899.873840 
	C673.782410,893.713318 670.826965,893.162964 664.649658,897.719666 
	C665.659180,898.150024 666.568420,898.393555 667.311462,898.887024 
	C668.511414,899.684082 669.601929,900.645813 670.738708,901.537964 
	C669.319702,902.622375 667.741150,904.780029 666.510559,904.597107 
	C662.210083,903.957947 660.435547,905.329895 659.902771,909.623169 
	C659.748657,910.865356 657.525452,912.431396 656.003723,912.784607 
	C653.829224,913.289429 651.152344,913.469116 649.173706,912.637207 
	C642.961548,910.025757 637.137573,906.212891 629.423096,909.011597 
	C629.699524,906.131348 629.881836,904.231750 630.209534,900.817810 
	C625.798828,902.192139 622.059509,903.503113 618.237915,904.498047 
	C615.583008,905.189331 612.696045,906.194092 610.115234,905.784119 
	C574.118103,900.065613 537.839966,899.080017 501.498016,898.856140 
	C468.170319,898.650818 434.828918,898.789612 401.520233,897.840149 
	C356.414886,896.554321 311.952637,890.799805 269.266541,875.100769 
	C268.207672,874.711426 267.191040,874.207153 265.200592,873.341492 
	C267.363342,870.542175 269.061005,867.991638 271.115906,865.771790 
	C273.866760,862.800354 274.039917,860.896301 269.785339,859.257141 
	C268.228363,858.657349 266.032013,856.596191 266.126038,855.352722 
	C266.628662,848.703186 263.318573,843.509399 260.464447,838.086121 
	C257.887573,833.189758 256.967499,828.346924 261.000031,823.753296 
	C255.249573,817.292175 255.233627,816.117798 260.736572,809.406311 
	C263.385559,806.175476 266.201752,803.105347 264.853516,798.251587 
	C264.648651,797.514038 266.537994,795.389038 267.639740,795.239441 
	C271.563202,794.706909 275.586395,794.410645 279.531494,794.660889 
	C284.574127,794.980713 287.656372,793.904114 289.893127,788.543457 
	C291.342072,785.071045 295.537903,781.708069 299.239532,780.430115 
	C306.709595,777.851440 314.648621,776.553162 322.458252,775.062256 
	C328.112488,773.982788 333.869904,773.443726 340.318054,772.563110 
	C330.775024,757.772583 319.556488,743.717957 335.063446,725.773499 
	C329.064636,724.436584 324.002838,723.042542 318.849426,722.229004 
	C312.756805,721.267212 307.345917,719.508606 303.043060,714.640137 
	C302.052307,713.519165 298.862518,713.736084 296.900330,714.217102 
	C293.711426,714.998718 292.725281,714.600952 291.443787,711.059204 
	C289.283722,705.089355 285.954865,699.413391 282.359436,694.129639 
	C279.006378,689.202271 274.436768,685.120850 270.815369,680.353516 
	C265.700531,673.620056 260.635040,666.805054 256.152344,659.646729 
	C250.678085,650.905090 252.161942,643.135376 261.439148,638.741272 
	C270.622314,634.391724 280.608185,630.696594 290.602722,629.304565 
	C315.814575,625.793213 341.216064,623.601624 366.566284,621.135437 
	C401.361816,617.750305 436.150452,614.222717 470.998596,611.472717 
	C497.068726,609.415405 523.219177,608.293152 549.349426,607.094666 
	C669.090454,601.603088 788.907288,601.595703 908.733032,602.325806 
	C980.391113,602.762451 1052.055542,603.886658 1123.705688,603.306396 
	C1174.340210,602.896301 1224.958130,600.209351 1275.579224,598.420044 
	C1314.214600,597.054443 1352.834595,595.191711 1391.477417,594.120117 
	C1430.953003,593.025513 1470.458252,592.971130 1509.930786,591.800171 
	C1536.064453,591.024963 1562.147949,588.487671 1588.281738,587.811707 
	C1624.245483,586.881470 1659.831787,589.832397 1693.865723,602.887146 
	C1699.593872,605.084351 1705.155273,607.720703 1710.773926,610.198975 
	C1731.133301,619.179260 1740.196167,636.282532 1745.204468,656.818298 
	C1750.942627,680.346802 1747.131836,703.867188 1746.679688,727.443420 
	C1746.259033,749.366394 1742.329712,770.802612 1739.766235,792.444763 
	C1738.242798,805.306580 1738.527100,818.382812 1738.003052,831.362793 
	C1737.382812,846.729187 1734.257446,861.402100 1725.629761,874.436279 
	C1723.529053,877.609924 1721.033813,880.574829 1718.405396,883.336182 
	C1712.362793,889.684509 1705.215332,893.157166 1696.123535,894.046875 
	C1659.996704,897.582336 1623.993652,902.502502 1587.827148,905.479675 
	C1557.627075,907.965698 1527.274536,908.901794 1496.967773,909.713745 
	C1462.824585,910.628418 1428.656982,910.635254 1394.000000,911.036987 
M679.455078,744.964111 
	C686.584167,745.764038 688.770325,748.078003 688.917419,756.315002 
	C689.155273,769.634949 689.045959,782.961304 689.068787,796.284912 
	C689.083252,804.734741 689.039978,804.647827 680.919983,807.590393 
	C679.580322,808.075806 678.653687,809.700684 676.663391,811.656616 
	C689.826721,811.656616 701.089355,811.656616 712.352051,811.656616 
	C712.604858,811.198547 712.857605,810.740417 713.110413,810.282349 
	C711.712524,809.286316 710.450500,807.885803 708.893677,807.362610 
	C701.236267,804.789185 701.209473,804.871399 701.208313,796.750061 
	C701.206299,781.927124 701.307373,767.103149 701.170044,752.281494 
	C701.043274,738.599426 689.768005,731.012268 676.776794,735.776794 
	C667.937012,739.018738 661.025269,744.903625 655.115417,752.082336 
	C654.040955,753.387390 652.932068,754.664001 651.839111,755.953735 
	C651.409058,755.828430 650.978943,755.703125 650.548889,755.577759 
	C650.548889,750.130188 650.772400,744.670105 650.469360,739.239441 
	C650.271240,735.687805 648.745667,733.785645 644.528015,735.687378 
	C640.325867,737.582092 635.729614,738.586426 631.371826,740.162964 
	C630.170654,740.597595 629.204590,741.682068 628.130676,742.468323 
	C629.251343,743.138794 630.294617,744.147705 631.505249,744.424377 
	C639.046326,746.147705 639.319702,746.161072 639.412170,753.899719 
	C639.581360,768.054260 639.544983,782.212219 639.480347,796.368286 
	C639.437439,805.756958 640.890015,804.311035 631.305054,807.606506 
	C629.945190,808.074036 628.958191,809.626221 627.798584,810.676453 
	C628.111206,811.096313 628.423767,811.516235 628.736328,811.936096 
	C639.050903,811.936096 649.365540,811.940247 659.680115,811.929443 
	C660.664429,811.928406 661.648682,811.833557 662.549988,811.786621 
	C664.176636,807.968140 661.192810,807.995911 659.130249,807.368164 
	C651.712341,805.110229 651.707031,805.127136 651.706787,797.616577 
	C651.706604,790.621460 652.222290,783.577637 651.566833,776.644470 
	C650.862122,769.189819 653.606750,763.507935 658.248047,758.174988 
	C663.798950,751.796936 669.709351,746.093628 679.455078,744.964111 
M1517.063843,812.660645 
	C1518.578125,813.118103 1520.466919,814.390015 1521.543335,813.895081 
	C1526.801880,811.477844 1531.899048,808.683777 1536.893677,805.750916 
	C1537.539551,805.371704 1537.257690,803.412476 1537.474487,801.612061 
	C1535.975586,802.098999 1535.369751,802.293457 1534.765503,802.492493 
	C1527.078247,805.025330 1526.073242,804.498718 1525.839722,796.275696 
	C1525.532104,785.452576 1525.618042,774.617737 1525.572266,763.787842 
	C1525.538452,755.789368 1525.640015,747.789490 1525.521362,739.792603 
	C1525.480835,737.051453 1525.011108,734.115112 1521.040771,735.026855 
	C1515.383545,736.326050 1509.742676,737.723999 1504.169434,739.337646 
	C1503.169312,739.627197 1502.529907,741.163391 1501.315918,742.610168 
	C1512.532837,744.067322 1513.184082,744.708008 1513.286621,754.986206 
	C1513.394775,765.816650 1513.348877,776.649109 1513.274536,787.480042 
	C1513.264771,788.894836 1513.170776,790.940430 1512.289917,791.614807 
	C1506.801758,795.815735 1501.552002,800.849243 1495.322144,803.438293 
	C1485.913086,807.348633 1478.999390,802.180176 1478.040527,791.900146 
	C1477.669922,787.926208 1477.595947,783.914795 1477.579102,779.919617 
	C1477.524414,766.922058 1477.585938,753.924133 1477.546509,740.926514 
	C1477.528076,734.856506 1476.432617,734.194275 1470.897095,735.886169 
	C1466.622437,737.192688 1462.181763,737.949585 1457.884033,739.190247 
	C1456.629395,739.552368 1455.611938,740.736267 1453.568726,742.200867 
	C1465.175293,744.791260 1465.178223,744.791199 1465.299805,755.243591 
	C1465.321045,757.076355 1465.279053,758.909973 1465.310181,760.742493 
	C1465.516479,772.897705 1465.386597,785.072083 1466.064087,797.201294 
	C1466.562866,806.130493 1471.384033,811.771667 1479.001953,813.556335 
	C1487.510376,815.549744 1495.161621,813.081604 1502.059570,808.124878 
	C1505.789307,805.444702 1509.261597,802.406311 1512.706787,799.644409 
	C1514.041626,803.894714 1515.317749,807.957825 1517.063843,812.660645 
M1172.876343,804.303284 
	C1166.423828,802.741821 1163.405518,799.623291 1163.074463,792.346863 
	C1162.529419,780.372864 1162.562012,768.371643 1162.407715,756.381165 
	C1162.334839,750.716492 1162.482056,745.048157 1162.361206,739.385071 
	C1162.280151,735.586487 1160.852173,734.005249 1156.628174,735.541992 
	C1152.134521,737.176941 1147.305542,737.869202 1142.696777,739.224121 
	C1141.484985,739.580383 1140.546021,740.864868 1138.666992,742.380188 
	C1150.099731,744.581909 1150.113037,744.581787 1150.214966,754.946411 
	C1150.255859,759.111938 1150.153809,763.279602 1150.238281,767.443787 
	C1150.444336,777.596375 1150.220825,787.791504 1151.105713,797.887451 
	C1152.054932,808.717773 1159.242798,814.357605 1170.080566,814.159729 
	C1177.056519,814.032288 1182.979248,811.193115 1188.384644,807.115723 
	C1191.630493,804.667419 1194.675293,801.952698 1198.012451,799.190552 
	C1198.763184,802.824890 1199.152588,806.152344 1200.164795,809.278259 
	C1201.750854,814.177368 1204.300659,815.277588 1208.960938,813.062988 
	C1213.000854,811.143127 1216.928345,808.927246 1220.675537,806.488953 
	C1221.728760,805.803650 1221.971069,803.872253 1223.100220,801.372437 
	C1220.266724,802.316223 1219.188477,802.714905 1218.087646,803.035400 
	C1212.364258,804.701416 1211.353271,804.065430 1210.868652,798.103210 
	C1210.572021,794.454895 1210.438721,790.784546 1210.427734,787.123413 
	C1210.381104,771.626343 1210.437988,756.129028 1210.391602,740.631958 
	C1210.374634,734.953857 1209.191528,734.221252 1203.894287,735.708557 
	C1199.263062,737.008789 1194.515259,737.894043 1189.885376,739.198425 
	C1188.642456,739.548645 1187.641968,740.760010 1185.558594,742.289307 
	C1197.935303,744.423889 1198.158813,744.641479 1198.218872,755.697693 
	C1198.275879,766.195496 1198.260132,776.693970 1198.200439,787.191711 
	C1198.192261,788.631470 1198.256470,790.561829 1197.420166,791.428955 
	C1190.902100,798.187622 1184.166626,804.732422 1172.876343,804.303284 
M956.128296,762.505310 
	C956.405823,774.480408 956.122498,786.502930 957.130310,798.416260 
	C958.007568,808.786438 965.171631,814.230835 975.519897,814.180847 
	C982.866577,814.145325 989.057678,811.113892 994.718018,806.805908 
	C997.829590,804.437805 1000.739563,801.804932 1003.873291,799.180237 
	C1004.636292,802.774841 1005.057007,806.104980 1006.074646,809.241455 
	C1007.680237,814.190125 1010.160950,815.282776 1014.827637,813.071716 
	C1018.868103,811.157410 1022.799744,808.952698 1026.546753,806.518188 
	C1027.615479,805.823792 1027.872437,803.879822 1028.501709,802.508911 
	C1026.527100,802.169128 1025.790771,802.521851 1025.020874,802.770203 
	C1018.267212,804.948975 1017.138062,804.373962 1016.704285,797.195923 
	C1016.272949,790.057739 1016.346130,782.885498 1016.313599,775.727661 
	C1016.259888,763.901978 1016.343201,752.075562 1016.278809,740.250000 
	C1016.250488,735.053040 1014.918701,734.263306 1009.935669,735.660217 
	C1005.305298,736.958313 1000.558411,737.846130 995.945312,739.196350 
	C994.692261,739.563110 993.737488,740.948792 991.716797,742.648071 
	C1003.029419,743.870728 1004.017578,744.843628 1004.095215,754.167297 
	C1004.188171,765.326233 1004.162964,776.486633 1004.084717,787.645752 
	C1004.074951,789.039307 1003.894409,791.030945 1003.001404,791.720764 
	C997.662354,795.845459 992.552979,800.746033 986.491394,803.346252 
	C977.037048,807.401917 969.764465,802.565552 969.028137,792.289795 
	C968.267822,781.679993 968.421265,771.002014 968.268555,760.352539 
	C968.173035,753.691406 968.301331,747.027283 968.234863,740.365479 
	C968.180664,734.942505 967.062256,734.279358 962.088928,735.792664 
	C957.811829,737.094055 953.381104,737.888306 949.095337,739.165283 
	C947.756042,739.564392 946.667480,740.804688 944.453186,742.378418 
	C956.011902,744.559509 956.016479,744.559448 956.120361,754.513123 
	C956.144714,756.844727 956.126770,759.176819 956.128296,762.505310 
M1438.063110,749.878479 
	C1436.867676,740.488220 1432.467163,735.803406 1423.197021,734.666870 
	C1420.115845,734.289185 1416.841919,734.412964 1413.795654,735.014343 
	C1402.660889,737.212585 1393.149170,742.381775 1386.465088,751.773804 
	C1385.470459,753.171265 1385.304932,756.805054 1386.273804,757.637268 
	C1388.916626,759.907410 1398.511597,755.034424 1399.394775,751.386719 
	C1400.686890,746.049866 1405.818604,742.627563 1412.821045,742.432617 
	C1420.062500,742.231140 1424.108276,744.418884 1425.262451,750.545532 
	C1426.249878,755.786804 1425.933105,761.273743 1426.180786,766.399719 
	C1421.287231,767.322693 1417.342407,767.939514 1413.461304,768.833740 
	C1409.425171,769.763672 1405.369263,770.728394 1401.466675,772.092102 
	C1393.973389,774.710327 1387.873901,779.321655 1384.474365,786.606628 
	C1381.128662,793.775696 1380.757324,801.231995 1385.800171,807.858948 
	C1390.440308,813.956665 1397.246216,815.614807 1404.184082,813.466675 
	C1409.778198,811.734680 1414.919922,808.439758 1420.114868,805.570984 
	C1422.161865,804.440613 1423.808350,802.584900 1425.758789,800.958069 
	C1426.376831,803.873413 1426.700684,806.369690 1427.448364,808.731750 
	C1429.178833,814.199463 1431.550781,815.381348 1436.815796,812.994019 
	C1440.878296,811.152039 1444.772583,808.871887 1448.516846,806.440308 
	C1449.502808,805.799927 1449.654541,803.875244 1450.469604,801.841064 
	C1438.137207,804.494263 1438.140381,804.494263 1438.134033,792.755310 
	C1438.126587,778.770630 1438.112915,764.786011 1438.063110,749.878479 
M916.340149,734.957397 
	C900.347229,732.826599 887.846436,739.234192 877.735596,751.058960 
	C876.377869,752.646912 876.155518,755.205566 875.217712,757.849365 
	C877.672729,757.849365 878.895020,758.110535 879.953064,757.804321 
	C884.645508,756.446167 889.963074,756.520020 891.034058,749.452087 
	C891.742554,744.776306 899.003235,742.014099 905.703979,742.522888 
	C912.119446,743.010010 915.192444,745.092346 916.225464,751.085510 
	C917.083130,756.061646 916.870605,761.222229 917.111755,765.904480 
	C908.321411,768.076965 900.196533,769.727051 892.304688,772.139404 
	C884.907288,774.400635 879.138489,779.176147 875.464661,786.114197 
	C869.377808,797.608948 874.132812,811.237366 885.676880,813.400635 
	C890.548523,814.313477 896.365173,813.213257 901.051453,811.306091 
	C906.712158,809.002380 911.629089,804.871277 916.774414,801.590637 
	C917.153198,803.563416 917.438110,805.860046 918.047607,808.067017 
	C919.729248,814.156250 922.231140,815.493713 927.901611,812.911682 
	C931.810425,811.131897 935.559814,808.924622 939.136841,806.542603 
	C940.159302,805.861633 940.331482,803.903992 941.244019,801.676086 
	C929.193115,804.880066 929.011292,804.733215 929.010010,793.470215 
	C929.008423,779.655945 929.060852,765.841431 928.989502,752.027527 
	C928.942749,742.974060 925.662048,738.406799 916.340149,734.957397 
M616.651428,764.157227 
	C616.124695,762.065186 615.712402,759.936340 615.053833,757.886658 
	C607.021790,732.888428 577.808716,726.101746 559.737549,745.220093 
	C547.978088,757.660889 544.380981,772.475525 548.931580,789.019653 
	C552.287415,801.219788 559.550964,810.006104 572.251160,813.174805 
	C585.045654,816.367065 595.877869,812.431213 604.821594,803.088318 
	C615.039429,792.414429 618.678284,779.568054 616.651428,764.157227 
M779.728455,793.467285 
	C779.728455,777.210693 779.728455,760.954163 779.728455,744.206238 
	C783.694641,744.757080 787.265808,744.538574 790.174316,745.822021 
	C794.701721,747.819824 797.411499,746.144348 799.832275,742.766235 
	C800.740479,741.498840 801.355408,740.021240 802.104065,738.639526 
	C800.519409,738.026733 798.952209,736.945190 797.346985,736.885498 
	C791.578491,736.670715 785.797058,736.801208 779.019287,736.801208 
	C779.894775,727.727600 779.879272,719.146851 781.695740,710.973206 
	C784.968689,696.245422 792.418091,693.636780 805.004517,701.703918 
	C806.023193,702.356812 807.978271,702.805176 808.802795,702.272339 
	C811.430542,700.574341 813.884583,698.517029 816.054810,696.260925 
	C816.650146,695.642151 816.527466,693.253723 815.863953,692.674805 
	C810.920044,688.361206 805.265686,685.761536 798.491943,687.181274 
	C783.816162,690.257385 771.627197,702.636169 769.009033,717.566040 
	C767.926697,723.738281 767.697021,730.059998 767.212585,734.966736 
	C762.626587,737.413513 758.730774,739.492126 754.834961,741.570679 
	C755.031616,742.352905 755.228271,743.135071 755.424927,743.917236 
	C759.352905,744.225708 763.280884,744.534180 767.528564,744.867737 
	C767.528564,762.145508 767.528564,779.097656 767.528564,796.049805 
	C767.528564,805.167542 767.507935,805.103821 758.754700,807.931213 
	C757.540955,808.323303 756.647461,809.706970 755.605652,810.631531 
	C755.881653,810.983276 756.157593,811.335022 756.433533,811.686768 
	C769.683899,811.686768 782.934204,811.686768 796.277100,811.686768 
	C797.100769,806.174561 792.476196,807.713074 790.340149,807.228943 
	C779.767944,804.832520 779.728577,805.006104 779.728455,793.467285 
M1295.026001,692.463501 
	C1279.132324,703.049622 1275.982300,719.110596 1276.752930,734.899658 
	C1271.706665,737.503113 1267.868408,739.483398 1264.030029,741.463684 
	C1264.195801,742.242249 1264.361572,743.020813 1264.527344,743.799377 
	C1268.447510,744.148438 1272.367798,744.497559 1276.757935,744.888489 
	C1276.757935,746.599121 1276.757935,748.228821 1276.757935,749.858521 
	C1276.757935,765.343933 1276.757935,780.829346 1276.757935,796.314758 
	C1276.757935,805.251343 1276.734253,805.177246 1268.193237,807.901306 
	C1266.948364,808.298401 1266.054077,809.794556 1264.997559,810.782166 
	C1265.338135,811.103027 1265.678589,811.423889 1266.019165,811.744751 
	C1279.131958,811.744751 1292.244751,811.744751 1305.357544,811.744751 
	C1305.638306,811.369385 1305.919189,810.994019 1306.200073,810.618652 
	C1305.198242,809.716431 1304.334839,808.343079 1303.168579,808.000427 
	C1299.671875,806.972961 1296.064819,806.309998 1292.485596,805.578552 
	C1289.778076,805.025208 1288.736816,803.609314 1288.830811,800.711243 
	C1289.051880,793.891541 1288.901733,787.059814 1288.901733,780.232910 
	C1288.901733,768.441650 1288.901733,756.650391 1288.901733,744.141235 
	C1293.123413,744.804749 1297.010498,744.887756 1300.493530,746.116150 
	C1303.778320,747.274536 1305.821899,746.526428 1307.796143,744.112915 
	C1309.126343,742.486816 1310.520386,740.912903 1312.590942,738.490845 
	C1304.405640,735.083435 1296.473145,738.003967 1289.185303,736.404236 
	C1289.185303,730.687134 1289.010254,725.197144 1289.255737,719.726074 
	C1289.388428,716.768127 1290.042236,713.790588 1290.799438,710.910828 
	C1294.669800,696.191833 1301.543823,693.558411 1314.228394,701.741089 
	C1315.176514,702.352722 1316.974976,702.979370 1317.605957,702.525574 
	C1320.853149,700.189514 1323.848145,697.502563 1327.441162,694.513977 
	C1324.937012,692.569702 1323.462036,691.265686 1321.836670,690.188904 
	C1312.641479,684.097412 1304.078003,687.337646 1295.026001,692.463501 
M1093.744873,804.648987 
	C1092.203125,804.551453 1090.661377,804.453918 1088.458862,804.314636 
	C1093.484619,797.109863 1098.028442,790.588623 1102.580078,784.072754 
	C1112.205566,770.293030 1121.855713,756.530457 1131.448242,742.727783 
	C1133.769653,739.387634 1132.974731,736.889282 1129.464355,736.864563 
	C1112.213501,736.742981 1094.961182,736.809387 1077.451782,736.809387 
	C1077.045166,741.798950 1076.421997,747.254639 1076.292358,752.721924 
	C1076.263306,753.945740 1077.964233,755.210449 1079.385986,757.169067 
	C1080.583008,753.826294 1080.800171,751.562744 1082.019165,750.186401 
	C1084.087036,747.851501 1086.665894,744.545166 1089.242554,744.341919 
	C1098.281982,743.628967 1107.412231,744.065308 1117.286865,744.065308 
	C1114.058228,748.729370 1111.268921,752.785339 1108.452759,756.822571 
	C1097.122681,773.065063 1085.755005,789.281555 1074.513428,805.585022 
	C1073.738403,806.709106 1073.240845,808.794250 1073.775269,809.838196 
	C1074.326416,810.915161 1076.260132,811.730408 1077.654541,811.841919 
	C1081.131714,812.120056 1084.646118,811.933899 1088.145508,811.933899 
	C1102.775757,811.933960 1117.406128,811.933838 1133.245850,811.933838 
	C1133.245850,805.609863 1133.375732,799.655518 1133.120850,793.717590 
	C1133.077271,792.700867 1131.390991,791.754700 1129.900513,790.181763 
	C1128.903931,793.522156 1128.258789,795.721802 1127.591064,797.914612 
	C1126.178345,802.554321 1123.629761,805.088318 1118.184814,804.766541 
	C1110.380005,804.305359 1102.527588,804.649048 1093.744873,804.648987 
M516.017822,769.433289 
	C512.839661,778.228943 509.661560,787.024597 506.078125,796.942078 
	C504.938446,794.335876 504.253021,792.915283 503.685913,791.448975 
	C498.176727,777.205139 492.678223,762.957153 487.196869,748.702576 
	C484.891785,742.708130 485.201843,742.346008 491.648102,740.826172 
	C493.017029,740.503418 494.133148,739.108459 495.365723,738.207520 
	C495.086029,737.819519 494.806335,737.431580 494.526611,737.043579 
	C484.421051,737.043579 474.315491,737.043579 464.209930,737.043579 
	C463.954193,737.428833 463.698486,737.814026 463.442749,738.199280 
	C464.557098,739.149109 465.524384,740.495117 466.813721,740.973633 
	C470.521027,742.349731 472.703064,744.748779 474.123962,748.492371 
	C481.310272,767.425476 488.718079,786.274658 496.059509,805.148804 
	C497.232086,808.163513 498.461975,811.155884 499.603180,814.003296 
	C506.463531,813.000305 509.935516,809.406006 512.058594,803.422974 
	C518.608765,784.964478 525.645386,766.679199 532.388733,748.288330 
	C533.726501,744.639709 535.467712,741.811707 539.620911,740.877563 
	C540.787903,740.615112 541.653015,739.010864 542.656616,738.022034 
	C542.365723,737.687622 542.074829,737.353210 541.783875,737.018799 
	C533.341858,737.018799 524.899841,737.018799 516.457764,737.018799 
	C516.204285,737.450806 515.950806,737.882812 515.697388,738.314819 
	C516.928528,739.181885 518.045044,740.476257 519.410522,740.842529 
	C525.518616,742.481018 525.699158,742.650085 523.562256,748.560547 
	C521.135437,755.272888 518.682251,761.975708 516.017822,769.433289 
M838.437378,742.950928 
	C835.990234,746.424316 833.543152,749.897766 830.451416,754.286133 
	C830.140076,748.711548 830.016174,744.117798 829.578247,739.554260 
	C829.319519,736.857910 828.738098,733.985840 824.757507,735.262085 
	C819.864014,736.830933 814.948914,738.343994 810.116150,740.083923 
	C808.817932,740.551270 807.784851,741.755249 805.802917,743.241272 
	C818.344543,745.880493 818.409302,745.880127 818.479248,757.575256 
	C818.556030,770.405640 818.594543,783.237793 818.464661,796.067383 
	C818.373108,805.111084 820.553467,804.392883 810.150513,807.737549 
	C808.807007,808.169434 807.788940,809.613525 806.620056,810.588684 
	C806.893921,810.977783 807.167786,811.366821 807.441589,811.755859 
	C819.567017,811.755859 831.692383,811.755859 843.817749,811.755859 
	C844.114014,811.414673 844.410278,811.073486 844.706543,810.732300 
	C843.709595,809.798767 842.851807,808.579651 841.678528,808.007996 
	C840.373840,807.372314 838.792114,807.257263 837.312927,807.036621 
	C832.506470,806.319763 830.208130,804.149292 830.568237,798.726257 
	C831.097107,790.762878 830.228638,782.703003 830.820557,774.748535 
	C831.626465,763.919128 835.989380,754.503845 844.693054,747.604614 
	C848.687195,744.438599 853.139465,745.468079 855.657837,749.853271 
	C856.470093,751.267700 856.690430,753.012817 857.430176,754.481384 
	C857.941406,755.495972 858.879395,756.295593 859.626587,757.191284 
	C860.616394,756.306091 862.174683,755.589417 862.495850,754.505981 
	C863.767395,750.216858 865.040222,745.851562 865.478821,741.431702 
	C865.643188,739.775940 863.955872,737.022278 862.388306,736.260681 
	C853.831726,732.103821 846.300964,734.260986 838.437378,742.950928 
M1323.646484,806.238037 
	C1321.506470,808.230469 1316.122070,805.949829 1316.380493,811.725586 
	C1328.785034,811.725586 1340.875244,811.725586 1354.406128,811.725586 
	C1352.983276,809.963135 1352.378296,808.584351 1351.348877,808.090271 
	C1349.897827,807.393799 1348.141602,807.292480 1346.499634,807.042786 
	C1341.720581,806.315735 1339.336304,804.211121 1339.753906,798.749329 
	C1340.310791,791.465393 1339.858276,784.106689 1339.899536,776.780457 
	C1339.956299,766.674438 1343.795776,757.972900 1350.464600,750.628174 
	C1357.540771,742.834778 1363.334717,744.324036 1366.662598,754.360901 
	C1367.009033,755.406494 1367.968384,756.248962 1368.643311,757.185669 
	C1369.672485,756.352356 1371.318848,755.699097 1371.623657,754.654358 
	C1372.922852,750.202209 1374.156250,745.672302 1374.683472,741.086914 
	C1374.856445,739.582947 1373.207886,737.054260 1371.730591,736.312927 
	C1364.102539,732.485107 1356.096191,733.850769 1350.309204,740.138428 
	C1346.537476,744.236694 1343.435425,748.951233 1339.548340,754.022583 
	C1339.293457,748.816895 1339.176147,744.083191 1338.788086,739.371765 
	C1338.552246,736.506714 1337.642822,734.043213 1333.808105,735.313110 
	C1328.934692,736.927063 1324.003784,738.376099 1319.179077,740.121521 
	C1317.930054,740.573303 1316.985352,741.865906 1315.164062,743.388000 
	C1327.296631,745.578796 1327.687378,745.947388 1327.748291,756.785706 
	C1327.829712,771.271667 1327.722656,785.758728 1327.815674,800.244568 
	C1327.833374,803.007202 1327.454224,805.213135 1323.646484,806.238037 
z"/>
<path fill="#F8F8F8" opacity="1.000000" stroke="none" 
	d="
M679.038818,744.957397 
	C669.709351,746.093628 663.798950,751.796936 658.248047,758.174988 
	C653.606750,763.507935 650.862122,769.189819 651.566833,776.644470 
	C652.222290,783.577637 651.706604,790.621460 651.706787,797.616577 
	C651.707031,805.127136 651.712341,805.110229 659.130249,807.368164 
	C661.192810,807.995911 664.176636,807.968140 662.549988,811.786621 
	C661.648682,811.833557 660.664429,811.928406 659.680115,811.929443 
	C649.365540,811.940247 639.050903,811.936096 628.736328,811.936096 
	C628.423767,811.516235 628.111206,811.096313 627.798584,810.676453 
	C628.958191,809.626221 629.945190,808.074036 631.305054,807.606506 
	C640.890015,804.311035 639.437439,805.756958 639.480347,796.368286 
	C639.544983,782.212219 639.581360,768.054260 639.412170,753.899719 
	C639.319702,746.161072 639.046326,746.147705 631.505249,744.424377 
	C630.294617,744.147705 629.251343,743.138794 628.130615,742.468262 
	C629.204590,741.682068 630.170654,740.597595 631.371826,740.162964 
	C635.729614,738.586426 640.325867,737.582092 644.528015,735.687378 
	C648.745667,733.785645 650.271240,735.687805 650.469360,739.239441 
	C650.772400,744.670105 650.548889,750.130188 650.548889,755.577759 
	C650.978943,755.703125 651.409058,755.828430 651.839111,755.953735 
	C652.932068,754.664001 654.040955,753.387390 655.115417,752.082336 
	C661.025269,744.903625 667.937012,739.018738 676.776794,735.776794 
	C689.768005,731.012268 701.043274,738.599426 701.170044,752.281494 
	C701.307373,767.103149 701.206299,781.927124 701.208313,796.750061 
	C701.209473,804.871399 701.236267,804.789185 708.893677,807.362610 
	C710.450500,807.885803 711.712524,809.286316 713.110413,810.282349 
	C712.857605,810.740417 712.604858,811.198547 712.352051,811.656616 
	C701.089355,811.656616 689.826721,811.656616 676.663391,811.656616 
	C678.653687,809.700684 679.580322,808.075806 680.919983,807.590393 
	C689.039978,804.647827 689.083252,804.734741 689.068787,796.284912 
	C689.045959,782.961304 689.155273,769.634949 688.917419,756.315002 
	C688.770325,748.078003 686.584167,745.764038 679.038818,744.957397 
z"/>
<path fill="#F3F3F3" opacity="1.000000" stroke="none" 
	d="
M1516.828857,812.340759 
	C1515.317749,807.957825 1514.041626,803.894714 1512.706787,799.644409 
	C1509.261597,802.406311 1505.789307,805.444702 1502.059570,808.124878 
	C1495.161621,813.081604 1487.510376,815.549744 1479.001953,813.556335 
	C1471.384033,811.771667 1466.562866,806.130493 1466.064087,797.201294 
	C1465.386597,785.072083 1465.516479,772.897705 1465.310181,760.742493 
	C1465.279053,758.909973 1465.321045,757.076355 1465.299805,755.243591 
	C1465.178223,744.791199 1465.175293,744.791260 1453.568726,742.200867 
	C1455.611938,740.736267 1456.629395,739.552368 1457.884033,739.190247 
	C1462.181763,737.949585 1466.622437,737.192688 1470.897095,735.886169 
	C1476.432617,734.194275 1477.528076,734.856506 1477.546509,740.926514 
	C1477.585938,753.924133 1477.524414,766.922058 1477.579102,779.919617 
	C1477.595947,783.914795 1477.669922,787.926208 1478.040527,791.900146 
	C1478.999390,802.180176 1485.913086,807.348633 1495.322144,803.438293 
	C1501.552002,800.849243 1506.801758,795.815735 1512.289917,791.614807 
	C1513.170776,790.940430 1513.264771,788.894836 1513.274536,787.480042 
	C1513.348877,776.649109 1513.394775,765.816650 1513.286621,754.986206 
	C1513.184082,744.708008 1512.532837,744.067322 1501.315918,742.610168 
	C1502.529907,741.163391 1503.169312,739.627197 1504.169434,739.337646 
	C1509.742676,737.723999 1515.383545,736.326050 1521.040771,735.026855 
	C1525.011108,734.115112 1525.480835,737.051453 1525.521362,739.792603 
	C1525.640015,747.789490 1525.538452,755.789368 1525.572266,763.787842 
	C1525.618042,774.617737 1525.532104,785.452576 1525.839722,796.275696 
	C1526.073242,804.498718 1527.078247,805.025330 1534.765503,802.492493 
	C1535.369751,802.293457 1535.975586,802.098999 1537.474487,801.612061 
	C1537.257690,803.412476 1537.539551,805.371704 1536.893677,805.750916 
	C1531.899048,808.683777 1526.801880,811.477844 1521.543335,813.895081 
	C1520.466919,814.390015 1518.578125,813.118103 1516.828857,812.340759 
z"/>
<path fill="#F9F9F9" opacity="1.000000" stroke="none" 
	d="
M1173.306396,804.361328 
	C1184.166626,804.732422 1190.902100,798.187622 1197.420166,791.428955 
	C1198.256470,790.561829 1198.192261,788.631470 1198.200439,787.191711 
	C1198.260132,776.693970 1198.275879,766.195496 1198.218872,755.697693 
	C1198.158813,744.641479 1197.935303,744.423889 1185.558594,742.289307 
	C1187.641968,740.760010 1188.642456,739.548645 1189.885376,739.198425 
	C1194.515259,737.894043 1199.263062,737.008789 1203.894287,735.708557 
	C1209.191528,734.221252 1210.374634,734.953857 1210.391602,740.631958 
	C1210.437988,756.129028 1210.381104,771.626343 1210.427734,787.123413 
	C1210.438721,790.784546 1210.572021,794.454895 1210.868652,798.103210 
	C1211.353271,804.065430 1212.364258,804.701416 1218.087646,803.035400 
	C1219.188477,802.714905 1220.266724,802.316223 1223.100220,801.372437 
	C1221.971069,803.872253 1221.728760,805.803650 1220.675537,806.488953 
	C1216.928345,808.927246 1213.000854,811.143127 1208.960938,813.062988 
	C1204.300659,815.277588 1201.750854,814.177368 1200.164795,809.278259 
	C1199.152588,806.152344 1198.763184,802.824890 1198.012451,799.190552 
	C1194.675293,801.952698 1191.630493,804.667419 1188.384644,807.115723 
	C1182.979248,811.193115 1177.056519,814.032288 1170.080566,814.159729 
	C1159.242798,814.357605 1152.054932,808.717773 1151.105713,797.887451 
	C1150.220825,787.791504 1150.444336,777.596375 1150.238281,767.443787 
	C1150.153809,763.279602 1150.255859,759.111938 1150.214966,754.946411 
	C1150.113037,744.581787 1150.099731,744.581909 1138.666992,742.380188 
	C1140.546021,740.864868 1141.484985,739.580383 1142.696777,739.224121 
	C1147.305542,737.869202 1152.134521,737.176941 1156.628174,735.541992 
	C1160.852173,734.005249 1162.280151,735.586487 1162.361206,739.385071 
	C1162.482056,745.048157 1162.334839,750.716492 1162.407715,756.381165 
	C1162.562012,768.371643 1162.529419,780.372864 1163.074463,792.346863 
	C1163.405518,799.623291 1166.423828,802.741821 1173.306396,804.361328 
z"/>
<path fill="#F9F9F9" opacity="1.000000" stroke="none" 
	d="
M956.128296,762.006958 
	C956.126770,759.176819 956.144714,756.844727 956.120361,754.513123 
	C956.016479,744.559448 956.011902,744.559509 944.453186,742.378418 
	C946.667480,740.804688 947.756042,739.564392 949.095337,739.165283 
	C953.381104,737.888306 957.811829,737.094055 962.088928,735.792664 
	C967.062256,734.279358 968.180664,734.942505 968.234863,740.365479 
	C968.301331,747.027283 968.173035,753.691406 968.268555,760.352539 
	C968.421265,771.002014 968.267822,781.679993 969.028137,792.289795 
	C969.764465,802.565552 977.037048,807.401917 986.491394,803.346252 
	C992.552979,800.746033 997.662354,795.845459 1003.001404,791.720764 
	C1003.894409,791.030945 1004.074951,789.039307 1004.084717,787.645752 
	C1004.162964,776.486633 1004.188171,765.326233 1004.095215,754.167297 
	C1004.017578,744.843628 1003.029419,743.870728 991.716797,742.648071 
	C993.737488,740.948792 994.692261,739.563110 995.945312,739.196350 
	C1000.558411,737.846130 1005.305298,736.958313 1009.935669,735.660217 
	C1014.918701,734.263306 1016.250488,735.053040 1016.278809,740.250000 
	C1016.343201,752.075562 1016.259888,763.901978 1016.313599,775.727661 
	C1016.346130,782.885498 1016.272949,790.057739 1016.704285,797.195923 
	C1017.138062,804.373962 1018.267212,804.948975 1025.020874,802.770203 
	C1025.790771,802.521851 1026.527100,802.169128 1028.501709,802.508911 
	C1027.872437,803.879822 1027.615479,805.823792 1026.546753,806.518188 
	C1022.799744,808.952698 1018.868103,811.157410 1014.827637,813.071716 
	C1010.160950,815.282776 1007.680237,814.190125 1006.074646,809.241455 
	C1005.057007,806.104980 1004.636292,802.774841 1003.873291,799.180237 
	C1000.739563,801.804932 997.829590,804.437805 994.718018,806.805908 
	C989.057678,811.113892 982.866577,814.145325 975.519897,814.180847 
	C965.171631,814.230835 958.007568,808.786438 957.130310,798.416260 
	C956.122498,786.502930 956.405823,774.480408 956.128296,762.006958 
z"/>
<path fill="#F9F9F9" opacity="1.000000" stroke="none" 
	d="
M1438.082520,750.339905 
	C1438.112915,764.786011 1438.126587,778.770630 1438.134033,792.755310 
	C1438.140381,804.494263 1438.137207,804.494263 1450.469604,801.841064 
	C1449.654541,803.875244 1449.502808,805.799927 1448.516846,806.440308 
	C1444.772583,808.871887 1440.878296,811.152039 1436.815796,812.994019 
	C1431.550781,815.381348 1429.178833,814.199463 1427.448364,808.731750 
	C1426.700684,806.369690 1426.376831,803.873413 1425.758789,800.958069 
	C1423.808350,802.584900 1422.161865,804.440613 1420.114868,805.570984 
	C1414.919922,808.439758 1409.778198,811.734680 1404.184082,813.466675 
	C1397.246216,815.614807 1390.440308,813.956665 1385.800171,807.858948 
	C1380.757324,801.231995 1381.128662,793.775696 1384.474365,786.606628 
	C1387.873901,779.321655 1393.973389,774.710327 1401.466675,772.092102 
	C1405.369263,770.728394 1409.425171,769.763672 1413.461304,768.833740 
	C1417.342407,767.939514 1421.287231,767.322693 1426.180786,766.399719 
	C1425.933105,761.273743 1426.249878,755.786804 1425.262451,750.545532 
	C1424.108276,744.418884 1420.062500,742.231140 1412.821045,742.432617 
	C1405.818604,742.627563 1400.686890,746.049866 1399.394775,751.386719 
	C1398.511597,755.034424 1388.916626,759.907410 1386.273804,757.637268 
	C1385.304932,756.805054 1385.470459,753.171265 1386.465088,751.773804 
	C1393.149170,742.381775 1402.660889,737.212585 1413.795654,735.014343 
	C1416.841919,734.412964 1420.115845,734.289185 1423.197021,734.666870 
	C1432.467163,735.803406 1436.867676,740.488220 1438.082520,750.339905 
M1415.905151,800.580566 
	C1417.734985,799.440430 1419.742798,798.504333 1421.346802,797.105347 
	C1423.106445,795.570740 1425.656494,793.715210 1425.829834,791.814209 
	C1426.397949,785.582520 1426.043213,779.266724 1426.043213,772.194885 
	C1419.492310,773.901611 1413.197266,774.653198 1407.778320,777.239929 
	C1403.587036,779.240601 1399.722168,783.029419 1397.123169,786.956970 
	C1394.426025,791.032654 1394.488647,796.336670 1397.742065,800.556274 
	C1400.999756,804.781799 1405.644043,804.086792 1410.116577,802.878235 
	C1411.867676,802.405029 1413.525146,801.585632 1415.905151,800.580566 
z"/>
<path fill="#FAFAFA" opacity="1.000000" stroke="none" 
	d="
M916.739014,735.023315 
	C925.662048,738.406799 928.942749,742.974060 928.989502,752.027527 
	C929.060852,765.841431 929.008423,779.655945 929.010010,793.470215 
	C929.011292,804.733215 929.193115,804.880066 941.244019,801.676086 
	C940.331482,803.903992 940.159302,805.861633 939.136841,806.542603 
	C935.559814,808.924622 931.810425,811.131897 927.901611,812.911682 
	C922.231140,815.493713 919.729248,814.156250 918.047607,808.067017 
	C917.438110,805.860046 917.153198,803.563416 916.774414,801.590637 
	C911.629089,804.871277 906.712158,809.002380 901.051453,811.306091 
	C896.365173,813.213257 890.548523,814.313477 885.676880,813.400635 
	C874.132812,811.237366 869.377808,797.608948 875.464661,786.114197 
	C879.138489,779.176147 884.907288,774.400635 892.304688,772.139404 
	C900.196533,769.727051 908.321411,768.076965 917.111755,765.904480 
	C916.870605,761.222229 917.083130,756.061646 916.225464,751.085510 
	C915.192444,745.092346 912.119446,743.010010 905.703979,742.522888 
	C899.003235,742.014099 891.742554,744.776306 891.034058,749.452087 
	C889.963074,756.520020 884.645508,756.446167 879.953064,757.804321 
	C878.895020,758.110535 877.672729,757.849365 875.217712,757.849365 
	C876.155518,755.205566 876.377869,752.646912 877.735596,751.058960 
	C887.846436,739.234192 900.347229,732.826599 916.739014,735.023315 
M914.739685,772.999817 
	C908.671448,774.635620 902.394226,775.744568 896.590515,778.047058 
	C890.066284,780.635437 886.548462,786.092163 886.301758,793.244385 
	C886.099426,799.110535 889.026611,803.278137 894.166260,803.614441 
	C902.307190,804.147278 909.188538,800.332275 914.672424,794.922058 
	C916.707092,792.914734 916.520691,788.420593 916.873657,785.011475 
	C917.214783,781.717651 917.021057,778.357788 916.886658,775.033936 
	C916.857727,774.316467 916.078186,773.629395 914.739685,772.999817 
z"/>
<path fill="#F9F9F9" opacity="1.000000" stroke="none" 
	d="
M616.731445,764.596680 
	C618.678284,779.568054 615.039429,792.414429 604.821594,803.088318 
	C595.877869,812.431213 585.045654,816.367065 572.251160,813.174805 
	C559.550964,810.006104 552.287415,801.219788 548.931580,789.019653 
	C544.380981,772.475525 547.978088,757.660889 559.737549,745.220093 
	C577.808716,726.101746 607.021790,732.888428 615.053833,757.886658 
	C615.712402,759.936340 616.124695,762.065186 616.731445,764.596680 
M604.853088,775.516846 
	C604.604187,764.498779 600.884827,754.970398 592.369141,747.739868 
	C583.346558,740.078857 570.162292,742.096191 564.354248,752.334595 
	C557.473083,764.464661 556.008240,787.616943 572.671387,801.026611 
	C582.265198,808.747253 595.843445,806.033142 600.705994,794.730042 
	C603.138184,789.076416 603.528137,782.544250 604.853088,775.516846 
z"/>
<path fill="#F8F8F8" opacity="1.000000" stroke="none" 
	d="
M779.728394,793.959595 
	C779.728577,805.006104 779.767944,804.832520 790.340149,807.228943 
	C792.476196,807.713074 797.100769,806.174561 796.277100,811.686768 
	C782.934204,811.686768 769.683899,811.686768 756.433533,811.686768 
	C756.157593,811.335022 755.881653,810.983276 755.605652,810.631531 
	C756.647461,809.706970 757.540955,808.323303 758.754700,807.931213 
	C767.507935,805.103821 767.528564,805.167542 767.528564,796.049805 
	C767.528564,779.097656 767.528564,762.145508 767.528564,744.867737 
	C763.280884,744.534180 759.352905,744.225708 755.424927,743.917236 
	C755.228271,743.135071 755.031616,742.352905 754.834961,741.570679 
	C758.730774,739.492126 762.626587,737.413513 767.212585,734.966736 
	C767.697021,730.059998 767.926697,723.738281 769.009033,717.566040 
	C771.627197,702.636169 783.816162,690.257385 798.491943,687.181274 
	C805.265686,685.761536 810.920044,688.361206 815.863953,692.674805 
	C816.527466,693.253723 816.650146,695.642151 816.054810,696.260925 
	C813.884583,698.517029 811.430542,700.574341 808.802795,702.272339 
	C807.978271,702.805176 806.023193,702.356812 805.004517,701.703918 
	C792.418091,693.636780 784.968689,696.245422 781.695740,710.973206 
	C779.879272,719.146851 779.894775,727.727600 779.019287,736.801208 
	C785.797058,736.801208 791.578491,736.670715 797.346985,736.885498 
	C798.952209,736.945190 800.519409,738.026733 802.104065,738.639526 
	C801.355408,740.021240 800.740479,741.498840 799.832275,742.766235 
	C797.411499,746.144348 794.701721,747.819824 790.174316,745.822021 
	C787.265808,744.538574 783.694641,744.757080 779.728455,744.206238 
	C779.728455,760.954163 779.728455,777.210693 779.728394,793.959595 
z"/>
<path fill="#F9F9F9" opacity="1.000000" stroke="none" 
	d="
M1295.330444,692.261108 
	C1304.078003,687.337646 1312.641479,684.097412 1321.836670,690.188904 
	C1323.462036,691.265686 1324.937012,692.569702 1327.441162,694.513977 
	C1323.848145,697.502563 1320.853149,700.189514 1317.605957,702.525574 
	C1316.974976,702.979370 1315.176514,702.352722 1314.228394,701.741089 
	C1301.543823,693.558411 1294.669800,696.191833 1290.799438,710.910828 
	C1290.042236,713.790588 1289.388428,716.768127 1289.255737,719.726074 
	C1289.010254,725.197144 1289.185303,730.687134 1289.185303,736.404236 
	C1296.473145,738.003967 1304.405640,735.083435 1312.590942,738.490845 
	C1310.520386,740.912903 1309.126343,742.486816 1307.796143,744.112915 
	C1305.821899,746.526428 1303.778320,747.274536 1300.493530,746.116150 
	C1297.010498,744.887756 1293.123413,744.804749 1288.901733,744.141235 
	C1288.901733,756.650391 1288.901733,768.441650 1288.901733,780.232910 
	C1288.901733,787.059814 1289.051880,793.891541 1288.830811,800.711243 
	C1288.736816,803.609314 1289.778076,805.025208 1292.485596,805.578552 
	C1296.064819,806.309998 1299.671875,806.972961 1303.168579,808.000427 
	C1304.334839,808.343079 1305.198242,809.716431 1306.200073,810.618652 
	C1305.919189,810.994019 1305.638306,811.369385 1305.357544,811.744751 
	C1292.244751,811.744751 1279.131958,811.744751 1266.019165,811.744751 
	C1265.678589,811.423889 1265.338135,811.103027 1264.997559,810.782166 
	C1266.054077,809.794556 1266.948364,808.298401 1268.193237,807.901306 
	C1276.734253,805.177246 1276.757935,805.251343 1276.757935,796.314758 
	C1276.757935,780.829346 1276.757935,765.343933 1276.757935,749.858521 
	C1276.757935,748.228821 1276.757935,746.599121 1276.757935,744.888489 
	C1272.367798,744.497559 1268.447510,744.148438 1264.527344,743.799377 
	C1264.361572,743.020813 1264.195801,742.242249 1264.030029,741.463684 
	C1267.868408,739.483398 1271.706665,737.503113 1276.752930,734.899658 
	C1275.982300,719.110596 1279.132324,703.049622 1295.330444,692.261108 
z"/>
<path fill="#FAFAFA" opacity="1.000000" stroke="none" 
	d="
M1094.220215,804.649048 
	C1102.527588,804.649048 1110.380005,804.305359 1118.184814,804.766541 
	C1123.629761,805.088318 1126.178345,802.554321 1127.591064,797.914612 
	C1128.258789,795.721802 1128.903931,793.522156 1129.900513,790.181763 
	C1131.390991,791.754700 1133.077271,792.700867 1133.120850,793.717590 
	C1133.375732,799.655518 1133.245850,805.609863 1133.245850,811.933838 
	C1117.406128,811.933838 1102.775757,811.933960 1088.145508,811.933899 
	C1084.646118,811.933899 1081.131714,812.120056 1077.654541,811.841919 
	C1076.260132,811.730408 1074.326416,810.915161 1073.775269,809.838196 
	C1073.240845,808.794250 1073.738403,806.709106 1074.513428,805.585022 
	C1085.755005,789.281555 1097.122681,773.065063 1108.452759,756.822571 
	C1111.268921,752.785339 1114.058228,748.729370 1117.286865,744.065308 
	C1107.412231,744.065308 1098.281982,743.628967 1089.242554,744.341919 
	C1086.665894,744.545166 1084.087036,747.851501 1082.019165,750.186401 
	C1080.800171,751.562744 1080.583008,753.826294 1079.385986,757.169067 
	C1077.964233,755.210449 1076.263306,753.945740 1076.292358,752.721924 
	C1076.421997,747.254639 1077.045166,741.798950 1077.451782,736.809387 
	C1094.961182,736.809387 1112.213501,736.742981 1129.464355,736.864563 
	C1132.974731,736.889282 1133.769653,739.387634 1131.448242,742.727783 
	C1121.855713,756.530457 1112.205566,770.293030 1102.580078,784.072754 
	C1098.028442,790.588623 1093.484619,797.109863 1088.458862,804.314636 
	C1090.661377,804.453918 1092.203125,804.551453 1094.220215,804.649048 
z"/>
<path fill="#F9F9F9" opacity="1.000000" stroke="none" 
	d="
M516.129150,769.057983 
	C518.682251,761.975708 521.135437,755.272888 523.562256,748.560547 
	C525.699158,742.650085 525.518616,742.481018 519.410522,740.842529 
	C518.045044,740.476257 516.928528,739.181885 515.697388,738.314819 
	C515.950806,737.882812 516.204285,737.450806 516.457764,737.018799 
	C524.899841,737.018799 533.341858,737.018799 541.783875,737.018799 
	C542.074829,737.353210 542.365723,737.687622 542.656616,738.022034 
	C541.653015,739.010864 540.787903,740.615112 539.620911,740.877563 
	C535.467712,741.811707 533.726501,744.639709 532.388733,748.288330 
	C525.645386,766.679199 518.608765,784.964478 512.058594,803.422974 
	C509.935516,809.406006 506.463531,813.000305 499.603180,814.003296 
	C498.461975,811.155884 497.232086,808.163513 496.059509,805.148804 
	C488.718079,786.274658 481.310272,767.425476 474.123962,748.492371 
	C472.703064,744.748779 470.521027,742.349731 466.813721,740.973633 
	C465.524384,740.495117 464.557098,739.149109 463.442749,738.199280 
	C463.698486,737.814026 463.954193,737.428833 464.209930,737.043579 
	C474.315491,737.043579 484.421051,737.043579 494.526611,737.043579 
	C494.806335,737.431580 495.086029,737.819519 495.365723,738.207520 
	C494.133148,739.108459 493.017029,740.503418 491.648102,740.826172 
	C485.201843,742.346008 484.891785,742.708130 487.196869,748.702576 
	C492.678223,762.957153 498.176727,777.205139 503.685913,791.448975 
	C504.253021,792.915283 504.938446,794.335876 506.078125,796.942078 
	C509.661560,787.024597 512.839661,778.228943 516.129150,769.057983 
z"/>
<path fill="#F8F8F8" opacity="1.000000" stroke="none" 
	d="
M838.677246,742.687805 
	C846.300964,734.260986 853.831726,732.103821 862.388306,736.260681 
	C863.955872,737.022278 865.643188,739.775940 865.478821,741.431702 
	C865.040222,745.851562 863.767395,750.216858 862.495850,754.505981 
	C862.174683,755.589417 860.616394,756.306091 859.626587,757.191284 
	C858.879395,756.295593 857.941406,755.495972 857.430176,754.481384 
	C856.690430,753.012817 856.470093,751.267700 855.657837,749.853271 
	C853.139465,745.468079 848.687195,744.438599 844.693054,747.604614 
	C835.989380,754.503845 831.626465,763.919128 830.820557,774.748535 
	C830.228638,782.703003 831.097107,790.762878 830.568237,798.726257 
	C830.208130,804.149292 832.506470,806.319763 837.312927,807.036621 
	C838.792114,807.257263 840.373840,807.372314 841.678528,808.007996 
	C842.851807,808.579651 843.709595,809.798767 844.706543,810.732300 
	C844.410278,811.073486 844.114014,811.414673 843.817749,811.755859 
	C831.692383,811.755859 819.567017,811.755859 807.441589,811.755859 
	C807.167786,811.366821 806.893921,810.977783 806.620056,810.588684 
	C807.788940,809.613525 808.807007,808.169434 810.150513,807.737549 
	C820.553467,804.392883 818.373108,805.111084 818.464661,796.067383 
	C818.594543,783.237793 818.556030,770.405640 818.479248,757.575256 
	C818.409302,745.880127 818.344543,745.880493 805.802917,743.241272 
	C807.784851,741.755249 808.817932,740.551270 810.116150,740.083923 
	C814.948914,738.343994 819.864014,736.830933 824.757507,735.262085 
	C828.738098,733.985840 829.319519,736.857910 829.578247,739.554260 
	C830.016174,744.117798 830.140076,748.711548 830.451416,754.286133 
	C833.543152,749.897766 835.990234,746.424316 838.677246,742.687805 
z"/>
<path fill="#F9F9F9" opacity="1.000000" stroke="none" 
	d="
M1324.029297,806.128784 
	C1327.454224,805.213135 1327.833374,803.007202 1327.815674,800.244568 
	C1327.722656,785.758728 1327.829712,771.271667 1327.748291,756.785706 
	C1327.687378,745.947388 1327.296631,745.578796 1315.164062,743.388000 
	C1316.985352,741.865906 1317.930054,740.573303 1319.179077,740.121521 
	C1324.003784,738.376099 1328.934692,736.927063 1333.808105,735.313110 
	C1337.642822,734.043213 1338.552246,736.506714 1338.788086,739.371765 
	C1339.176147,744.083191 1339.293457,748.816895 1339.548340,754.022583 
	C1343.435425,748.951233 1346.537476,744.236694 1350.309204,740.138428 
	C1356.096191,733.850769 1364.102539,732.485107 1371.730591,736.312927 
	C1373.207886,737.054260 1374.856445,739.582947 1374.683472,741.086914 
	C1374.156250,745.672302 1372.922852,750.202209 1371.623657,754.654358 
	C1371.318848,755.699097 1369.672485,756.352356 1368.643311,757.185669 
	C1367.968384,756.248962 1367.009033,755.406494 1366.662598,754.360901 
	C1363.334717,744.324036 1357.540771,742.834778 1350.464600,750.628174 
	C1343.795776,757.972900 1339.956299,766.674438 1339.899536,776.780457 
	C1339.858276,784.106689 1340.310791,791.465393 1339.753906,798.749329 
	C1339.336304,804.211121 1341.720581,806.315735 1346.499634,807.042786 
	C1348.141602,807.292480 1349.897827,807.393799 1351.348877,808.090271 
	C1352.378296,808.584351 1352.983276,809.963135 1354.406128,811.725586 
	C1340.875244,811.725586 1328.785034,811.725586 1316.380493,811.725586 
	C1316.122070,805.949829 1321.506470,808.230469 1324.029297,806.128784 
z"/>
<path fill="#030303" opacity="1.000000" stroke="none" 
	d="
M1415.565186,800.752319 
	C1413.525146,801.585632 1411.867676,802.405029 1410.116577,802.878235 
	C1405.644043,804.086792 1400.999756,804.781799 1397.742065,800.556274 
	C1394.488647,796.336670 1394.426025,791.032654 1397.123169,786.956970 
	C1399.722168,783.029419 1403.587036,779.240601 1407.778320,777.239929 
	C1413.197266,774.653198 1419.492310,773.901611 1426.043213,772.194885 
	C1426.043213,779.266724 1426.397949,785.582520 1425.829834,791.814209 
	C1425.656494,793.715210 1423.106445,795.570740 1421.346802,797.105347 
	C1419.742798,798.504333 1417.734985,799.440430 1415.565186,800.752319 
z"/>
<path fill="#050505" opacity="1.000000" stroke="none" 
	d="
M915.192017,772.964050 
	C916.078186,773.629395 916.857727,774.316467 916.886658,775.033936 
	C917.021057,778.357788 917.214783,781.717651 916.873657,785.011475 
	C916.520691,788.420593 916.707092,792.914734 914.672424,794.922058 
	C909.188538,800.332275 902.307190,804.147278 894.166260,803.614441 
	C889.026611,803.278137 886.099426,799.110535 886.301758,793.244385 
	C886.548462,786.092163 890.066284,780.635437 896.590515,778.047058 
	C902.394226,775.744568 908.671448,774.635620 915.192017,772.964050 
z"/>
<path fill="#020202" opacity="1.000000" stroke="none" 
	d="
M604.847412,775.963135 
	C603.528137,782.544250 603.138184,789.076416 600.705994,794.730042 
	C595.843445,806.033142 582.265198,808.747253 572.671387,801.026611 
	C556.008240,787.616943 557.473083,764.464661 564.354248,752.334595 
	C570.162292,742.096191 583.346558,740.078857 592.369141,747.739868 
	C600.884827,754.970398 604.604187,764.498779 604.847412,775.963135 
z"/>
</svg>